<svg width="757" height="759" viewBox="0 0 757 759" fill="none" xmlns="http://www.w3.org/2000/svg">
<g clip-path="url(#clip0_43_3)">
<rect opacity="0.5" x="45.5852" width="467.331" height="467.331" transform="matrix(0.701311 -0.712855 0.701311 0.712855 18.2838 411.971)" stroke="#00B0E5" stroke-width="65"/>
<path d="M235.511 480.797V504H176.514V480.797H189.237V422.328H176.514V399.125H263.065V441.51H244.014L239.862 422.328H222.987V442.169H237.686V459.044H222.987V480.797H235.511ZM369.019 459.308V504H280.491V480.797H293.213V422.328H280.491V399.125H369.019V440.851H352.144L345.815 422.328H326.963V439.466H343.838V456.737H326.963V480.797H345.815L352.144 459.308H369.019ZM433.576 505.912C429.972 505.912 426.896 505.648 424.347 505.121C421.799 504.593 419.426 503.736 417.228 502.55C415.075 501.363 412.768 499.825 410.307 497.936L408 504H386.708V471.898H407.868C409.23 475.589 411.318 478.204 414.13 479.742C416.987 481.236 420.48 481.983 424.611 481.983C427.16 481.983 429.335 481.478 431.137 480.467C432.939 479.413 433.84 478.028 433.84 476.314C433.84 474.161 432.917 472.557 431.071 471.502C429.225 470.404 426.633 469.393 423.293 468.47C419.03 467.328 415.163 466.119 411.691 464.845C408.263 463.57 405.187 462.252 402.463 460.89C397.013 458.165 392.619 454.298 389.279 449.288C385.939 444.278 384.269 437.621 384.269 429.315C384.269 422.943 385.654 417.318 388.422 412.44C391.147 407.606 395.058 403.849 400.156 401.168C405.297 398.443 411.34 397.081 418.283 397.081C426.764 397.081 433.466 399.784 438.388 405.189L441.75 398.993H460.668V430.436H440.431C438.542 426.48 436.454 423.734 434.169 422.196C431.884 420.658 428.742 419.889 424.743 419.889C421.711 419.889 419.36 420.438 417.69 421.537C416.02 422.591 415.185 424.063 415.185 425.953C415.185 428.062 416.393 429.667 418.81 430.765C421.183 431.908 424.567 432.962 428.962 433.929C436.652 435.687 443.288 437.906 448.869 440.587C454.318 443.268 458.669 447.069 461.921 451.991C465.217 456.869 466.865 463.175 466.865 470.909C466.865 477.457 465.502 483.39 462.778 488.707C460.009 494.024 456.076 498.221 450.978 501.297C445.925 504.374 440.124 505.912 433.576 505.912ZM561.283 480.27V504H502.55V480.27H513.36V422.328H504.066L501.232 440.389H482.709V399.125H581.388V440.389H562.931L560.096 422.328H550.472V480.27H561.283Z" fill="black"/>
<path d="M92.5489 402.615C75.728 403.262 61.5311 400.472 49.9582 394.246C35.4983 386.629 27.9801 375.076 27.4037 359.587C26.8211 343.931 33.2984 329.755 46.8356 317.059C59.5586 304.894 73.9142 298.505 89.9024 297.89C96.7307 297.627 100.17 298.162 100.219 299.495C100.244 300.161 97.7552 300.507 92.7527 300.532C76.5979 301.153 63.3709 306.499 53.0716 316.569C42.131 327.33 36.9519 340.539 37.5346 356.195C38.0552 370.185 43.1337 381.165 52.7701 389.134C62.4064 397.103 74.386 400.812 88.7087 400.261C100.7 399.8 114.081 396.367 128.853 389.961C154.604 378.297 167.067 361.389 166.243 339.237C165.759 326.246 159.352 315.401 147.02 306.702L112.995 286.494C100.841 278.122 94.5635 268.522 94.1606 257.697C93.8693 249.869 96.4402 242.765 101.873 236.385C96.5626 237.089 92.2452 239.84 88.9214 244.638C85.5913 249.27 84.0286 254.333 84.2331 259.83C84.667 271.488 90.3744 281.443 101.356 289.694L132.864 309.498C144.511 317.723 151.128 327.476 152.716 338.757C155.923 335.297 158.442 333.533 160.274 333.462C161.606 333.411 162.31 334.385 162.384 336.383C162.601 342.213 158.753 348.615 150.84 355.591C147.536 365.392 140.533 374.418 129.833 382.668C119.459 390.739 109.026 394.977 98.534 395.38C97.7013 395.412 97.2756 395.178 97.257 394.679C97.2198 393.679 97.8674 393.154 99.1998 393.103L108.637 391.239C116.384 388.773 123.646 384.491 130.424 378.392C137.196 372.127 142.111 365.267 145.169 357.811C141.696 354.108 139.863 349.675 139.671 344.512C139.46 338.849 140.77 335.963 143.601 335.855C144.934 335.803 146.205 336.338 147.414 337.459C146.549 332.155 144.445 327.149 141.101 322.441C137.923 317.726 133.432 313.562 127.627 309.949L97.3957 290.847C86.7415 282.417 81.1912 272.206 80.745 260.214C80.497 253.552 82.4483 247.723 86.5987 242.726C90.9094 237.557 96.3956 234.844 103.057 234.588L103.557 234.568C115.441 222.269 131.792 215.72 152.61 214.919C170.597 214.228 183.239 217.828 190.538 225.72C193.135 228.289 194.496 231.239 194.62 234.57C194.831 240.232 191.325 244.62 184.102 247.734C179.014 249.931 172.972 251.164 165.977 251.433C162.646 251.561 159.14 251.445 155.457 251.087C151.775 250.728 147.836 250.212 143.641 249.539C134.062 247.573 127.131 245.087 122.85 242.083C122.504 241.762 122.328 241.519 122.322 241.352C122.304 240.853 122.544 240.593 123.044 240.574C123.543 240.555 123.88 240.625 124.052 240.786C134.114 246.737 147.805 249.379 165.126 248.713C170.622 248.502 175.584 247.394 180.012 245.389C185.754 242.833 188.539 239.223 188.365 234.56C188.13 228.231 183.373 223.66 174.096 220.848C167.014 218.785 159.892 217.892 152.731 218.167C130.914 219.006 116.268 226.574 108.795 240.872C106.291 245.305 105.136 250.103 105.328 255.266C105.712 265.592 111.972 274.691 124.106 282.564L157.863 302.282C170.053 311.654 176.415 323.501 176.948 337.825C177.667 357.145 168.254 373.102 148.708 385.695C132.253 396.168 113.533 401.809 92.5489 402.615ZM202.619 375.616C196.124 375.866 192.721 371.827 192.411 363.5C192.033 353.34 195.476 342.783 202.741 331.829C199.834 325.436 198.245 318.576 197.972 311.247C197.705 304.086 198.889 297.786 201.521 292.347C206.46 281.649 213.093 276.141 221.421 275.82C231.746 275.423 238.07 284.02 240.393 301.61C244.563 301.617 247.693 302.831 249.785 305.252C252.037 307.501 253.243 310.79 253.404 315.121C253.528 318.452 253.202 320.883 252.425 322.414C251.808 323.772 251.167 324.463 250.501 324.489C249.834 324.515 249.489 324.194 249.464 323.528C249.433 322.695 249.479 321.693 249.602 320.521C249.892 319.342 250.006 317.92 249.944 316.254C249.857 313.923 248.959 312.206 247.251 311.104C245.536 309.836 243.429 309.249 240.931 309.346C239.689 329.742 235.355 345.503 227.93 356.63L235.675 356.332C233.559 357.748 231.669 358.488 230.003 358.552C229.67 358.564 229.167 358.5 228.495 358.359C227.989 358.212 227.57 358.145 227.237 358.158C227.576 358.311 224.764 361.172 218.8 366.738C212.509 372.484 207.116 375.444 202.619 375.616ZM205.386 328.976C215.037 314.928 225.38 306.024 236.414 302.264C232.55 288.068 227.704 281.083 221.875 281.307C216.546 281.512 211.828 286.947 207.722 297.613C205.151 304.717 204.011 312.183 204.302 320.011C204.42 323.175 204.781 326.164 205.386 328.976ZM219.89 355.688C223.75 351.87 227.564 344.552 231.331 333.732C235.252 322.573 237.117 314.412 236.925 309.249C233.279 309.89 227.66 313.525 220.068 320.155C212.637 326.612 208.073 331.708 206.378 335.442C210.346 347.966 214.85 354.714 219.89 355.688ZM203.089 368.093C207.753 367.913 213.035 364.208 218.937 356.976C213.416 356.521 208.675 350.115 204.712 337.758C199.557 347.13 197.076 354.397 197.268 359.56C197.485 365.389 199.426 368.234 203.089 368.093ZM266.587 373.157C265.088 373.214 264.314 372.577 264.265 371.245C264.258 371.078 264.252 370.912 264.246 370.745C264.406 370.572 264.564 370.316 264.718 369.976L264.708 369.726C264.677 368.894 264.89 367.885 265.346 366.7C267.917 359.596 270.059 349.923 271.772 337.681C272.166 334.831 272.258 330.574 272.047 324.911C271.972 322.913 271.525 319.844 270.704 315.706C270.049 311.562 269.685 308.49 269.61 306.491C269.567 305.326 270.202 304.467 271.516 303.916L282.396 300.496C284.683 294.737 288.742 291.746 294.571 291.521C297.069 291.425 297.939 292.393 297.18 294.423C299.148 293.514 300.622 292.79 301.603 292.252C302.583 291.714 303.074 291.445 303.074 291.445C303.407 291.432 303.583 291.675 303.601 292.175C303.657 293.674 301.064 295.692 295.821 298.228C293.238 304.999 290.137 313.541 286.518 323.855C283.059 333.995 279.002 345.993 274.348 359.849C279.294 353.821 283.512 348.405 287.002 343.601C290.659 338.79 293.675 334.671 296.049 331.244C297.757 327.842 300.103 323.666 303.088 318.714C306.066 313.596 309.519 307.792 313.448 301.303C315.668 298.216 319.109 296.582 323.772 296.403C328.436 296.224 330.835 297.966 330.972 301.63C331.028 303.129 329.32 308.782 325.849 318.59C321.613 330.261 319.508 336.43 319.533 337.096C323.72 333.099 327.643 328.695 331.3 323.884C335.117 318.9 338.672 313.593 341.965 307.963C342.588 306.771 343.232 306.163 343.898 306.137C344.398 306.118 344.663 306.525 344.694 307.357C344.775 309.522 340.628 316.854 332.254 329.351C329.725 333.118 327.114 336.888 324.419 340.661C321.724 344.434 319.029 348.207 316.334 351.98C315.865 352.832 314.798 353.29 313.133 353.354C311.967 353.399 311.363 352.838 311.319 351.672C311.288 350.84 311.482 349.331 311.901 347.147C312.32 344.962 312.878 342.022 313.574 338.326L316.986 322.433C317.54 319.409 317.935 316.559 318.169 313.881C318.402 311.204 318.476 308.699 318.389 306.367C312.889 315.419 305.597 325.623 296.513 336.98L272.831 366.162C272.499 370.678 270.418 373.01 266.587 373.157ZM375.118 365.231C365.958 365.583 358.57 359.779 352.955 347.82C348.444 338.653 345.993 328.823 345.603 318.33C345.374 312.168 345.869 307.562 347.09 304.513C348.021 302.643 350.569 301.627 354.732 301.467C356.398 301.403 357.412 301.781 357.776 302.601C357.443 302.614 357.092 304.379 356.723 307.896C356.341 311.079 356.221 314.586 356.364 318.417C356.68 326.911 358.418 335.517 361.577 344.236C366.002 355.574 371.795 361.106 378.957 360.83C380.122 360.785 381.609 360.395 383.416 359.658C385.384 358.748 386.784 358.278 387.616 358.246C388.449 358.214 388.875 358.447 388.893 358.947C388.943 360.28 387.077 361.686 383.296 363.165C379.842 364.466 377.116 365.154 375.118 365.231ZM275.886 320.511C276.613 317.647 277.427 314.864 278.327 312.161C279.227 309.458 280.053 307.007 280.805 304.81L274.144 307.318C274.558 309.47 274.888 311.626 275.135 313.785C275.549 315.937 275.799 318.179 275.886 320.511ZM390.519 368.392C389.02 368.449 388.246 367.812 388.196 366.479C388.19 366.313 388.184 366.146 388.178 365.98C388.338 365.807 388.495 365.551 388.65 365.211L388.64 364.961C388.609 364.129 388.822 363.12 389.278 361.935C391.849 354.831 393.991 345.158 395.703 332.916C396.098 330.066 396.189 325.809 395.979 320.146C395.904 318.148 395.457 315.079 394.635 310.941C393.981 306.797 393.616 303.725 393.542 301.726C393.499 300.56 394.134 299.702 395.448 299.151L406.328 295.731C408.615 289.972 412.674 286.98 418.503 286.756C421.001 286.66 421.871 287.627 421.112 289.658C423.08 288.748 424.554 288.025 425.535 287.487C426.515 286.949 427.006 286.679 427.006 286.679C427.339 286.667 427.514 286.91 427.533 287.41C427.589 288.909 424.995 290.927 419.753 293.463C417.17 300.234 414.068 308.776 410.449 319.089C406.991 329.23 402.934 341.228 398.28 355.084C403.226 349.056 407.444 343.64 410.934 338.835C414.591 334.025 417.607 329.906 419.981 326.479C421.689 323.077 424.035 318.901 427.02 313.949C429.998 308.831 433.451 303.027 437.379 296.538C439.599 293.451 443.041 291.817 447.704 291.638C452.367 291.459 454.767 293.201 454.904 296.865C454.959 298.364 453.252 304.017 449.781 313.824C445.545 325.496 443.44 331.665 443.465 332.331C447.652 328.334 451.575 323.93 455.231 319.119C459.049 314.135 462.604 308.828 465.897 303.197C466.52 302.006 467.164 301.397 467.83 301.372C468.33 301.353 468.595 301.759 468.626 302.592C468.707 304.757 464.56 312.089 456.185 324.586C453.657 328.353 451.045 332.123 448.351 335.896C445.656 339.669 442.961 343.442 440.266 347.215C439.797 348.067 438.73 348.525 437.065 348.589C435.899 348.633 435.294 348.073 435.251 346.907C435.22 346.074 435.414 344.566 435.833 342.381C436.252 340.197 436.81 337.257 437.506 333.561L440.918 317.668C441.472 314.644 441.866 311.794 442.1 309.116C442.334 306.438 442.408 303.934 442.321 301.602C436.821 310.653 429.528 320.858 420.444 332.215L396.763 361.397C396.431 365.913 394.35 368.244 390.519 368.392ZM499.049 360.466C489.889 360.818 482.502 355.014 476.887 343.055C472.376 333.888 469.925 324.058 469.535 313.565C469.305 307.403 469.801 302.797 471.022 299.748C471.953 297.877 474.5 296.862 478.664 296.702C480.329 296.638 481.344 297.016 481.708 297.836C481.375 297.849 481.024 299.614 480.654 303.13C480.273 306.314 480.153 309.821 480.295 313.652C480.612 322.146 482.349 330.752 485.509 339.471C489.934 350.809 495.727 356.34 502.888 356.065C504.054 356.02 505.541 355.63 507.348 354.893C509.315 353.983 510.716 353.512 511.548 353.48C512.381 353.448 512.807 353.682 512.825 354.182C512.875 355.514 511.009 356.92 507.228 358.4C503.774 359.7 501.048 360.389 499.049 360.466ZM399.818 315.746C400.545 312.882 401.359 310.099 402.259 307.396C403.159 304.692 403.985 302.242 404.737 300.045L398.076 302.553C398.49 304.705 398.82 306.861 399.067 309.019C399.481 311.172 399.731 313.414 399.818 315.746ZM533.299 365.904C521.474 366.359 515.277 358.925 514.707 343.602C514.62 341.27 514.61 338.769 514.677 336.097C514.905 333.253 515.293 330.236 515.842 327.046C515.157 326.572 514.466 325.931 513.769 325.124C513.065 324.151 512.356 323.01 511.64 321.704C512.312 321.844 512.991 322.152 513.676 322.626C514.521 322.927 515.532 323.222 516.711 323.51C518.233 315.112 522.922 306.676 530.779 298.201C539.271 288.868 547.431 284.051 555.259 283.75C557.091 283.679 558.016 283.894 558.035 284.393C558.047 284.727 556.912 285.604 554.63 287.026C548.592 290.594 542.955 295.981 537.719 303.188C532.49 310.561 528.753 317.71 526.509 324.634L527.028 325.115C535.022 324.807 543.206 320.657 551.581 312.662C559.957 304.668 563.995 296.673 563.698 288.679C563.605 286.181 562.855 283.958 561.448 282.01C560.042 280.063 558.172 279.134 555.841 279.224C552.51 279.352 548.812 280.828 544.748 283.653C540.677 286.312 538.392 287.651 537.892 287.67C537.559 287.683 537.39 287.606 537.384 287.439C537.309 285.44 540.143 283.163 545.885 280.607C550.807 278.417 554.684 277.267 557.515 277.158C561.346 277.011 564.55 277.972 567.129 280.041C569.874 282.103 571.318 285.05 571.461 288.881C571.789 297.708 566.363 306.506 555.181 315.276C545.128 323.001 535.287 327.466 525.659 328.67C524.475 332.718 523.952 336.575 524.088 340.239C524.602 354.063 529.856 360.782 539.849 360.398C547.51 360.104 555.38 356.465 563.459 349.483C570.249 343.718 575.83 336.832 580.202 328.824C581.614 326.435 582.82 325.221 583.819 325.183C583.986 325.176 584.075 325.34 584.088 325.673C584.112 326.339 583.502 327.864 582.257 330.247C577.397 338.606 570.432 346.379 561.359 353.567C551.479 361.452 542.126 365.565 533.299 365.904ZM592.929 362.11C591.764 362.155 590.246 361.713 588.377 360.784C586.502 359.689 585.545 358.641 585.508 357.642L588.255 350.781C590.844 344.177 593.273 337.746 595.542 331.487C597.971 325.056 599.901 318.643 601.331 312.25C602.786 306.524 603.358 299.496 603.048 291.169C602.61 292.854 601.618 295.31 600.07 298.539C598.522 301.767 596.423 305.851 593.771 310.79C591.28 315.556 589.011 319.563 586.964 322.81C585.077 325.885 583.501 328.364 582.237 330.247C582.243 330.414 582.08 330.504 581.747 330.516C580.914 330.548 580.485 330.231 580.46 329.565C580.448 329.232 580.522 328.979 580.682 328.806L587.971 316.267C592.201 308.932 595.54 302.299 597.988 296.367C600.429 290.269 602.149 284.949 603.148 280.407C603.986 276.038 605.571 273.809 607.903 273.72C610.567 273.617 612.024 276.897 612.271 283.559C612.718 295.551 609.436 310.438 602.426 328.22C610.997 316.549 616.964 308.814 620.325 305.015C629.44 294.491 636.662 289.126 641.991 288.921C647.321 288.716 650.116 292.111 650.376 299.106C650.556 303.936 649.381 308.235 646.853 312.001C643.862 316.786 641.035 319.23 638.37 319.333C637.87 319.352 637.608 319.028 637.583 318.362C637.583 318.362 638.422 316.245 640.099 312.011C641.776 307.777 642.559 304.16 642.447 301.163C642.28 296.666 640.78 294.472 637.949 294.58C633.619 294.747 627.313 300.077 619.031 310.569C615.522 314.874 612.503 318.909 609.975 322.676C607.44 326.276 605.393 329.524 603.833 332.419C603.685 332.925 602.926 334.956 601.558 338.511C600.189 342.066 598.466 347.303 596.388 354.221L594.16 361.562C593.839 361.908 593.429 362.091 592.929 362.11Z" fill="black"/>
</g>
<defs>
<clipPath id="clip0_43_3">
<rect width="757" height="759" fill="white"/>
</clipPath>
</defs>
</svg>
